<?xml version="1.0" encoding="UTF-8"?>
<!DOCTYPE svg PUBLIC "-//W3C//DTD SVG 1.0//EN" "http://www.w3.org/TR/2001/REC-SVG-20010904/DTD/svg10.dtd">
<!-- Creator: CorelDRAW -->
<svg xmlns="http://www.w3.org/2000/svg" xml:space="preserve" width="12.8051cm" height="6.10758cm" version="1.0" style="shape-rendering:geometricPrecision; text-rendering:geometricPrecision; image-rendering:optimizeQuality; fill-rule:evenodd; clip-rule:evenodd"
viewBox="0 0 447.45 213.42"
 xmlns:xlink="http://www.w3.org/1999/xlink"
 xmlns:xodm="http://www.corel.com/coreldraw/odm/2003">
 <defs>
  <style type="text/css">
   <![CDATA[
    .fil1 {fill:lime}
    .fil2 {fill:#1B120D}
    .fil0 {fill:#D6C8BB}
   ]]>
  </style>
 </defs>
 <g id="Camada_x0020_1">
  <metadata id="CorelCorpID_0Corel-Layer"/>
  <path class="fil0" d="M0.2 63.99l64.36 0.68c-1.79,0.71 -13.73,9.44 -16.4,11.33 -2.95,2.08 -5.74,4.03 -8.53,5.89 -2.64,1.76 -6.15,4.44 -8.57,5.64l-0.02 22.62c2.98,-1.02 36.87,-24.76 40.33,-27.19 5.7,-4.01 38.03,-25.38 39.71,-27.78 -3.42,-3.7 -15.4,-10.67 -19.76,-13.87 -4.46,-3.28 -56.99,-40.04 -60.51,-41.3l-0.02 22.9c2.54,0.89 13.6,8.92 16.96,11.22 5.27,3.6 11,7.29 16.54,11.53l-64.3 -0.32 0.2 18.66z"/>
  <path class="fil1" d="M447.25 167.27l-63.04 0.68c1.79,0.71 13.73,9.44 16.4,11.33 2.95,2.08 5.74,4.03 8.53,5.89 2.64,1.76 6.15,4.44 8.57,5.64l0.02 22.62c-2.98,-1.02 -36.87,-24.76 -40.33,-27.19 -5.7,-4.01 -38.03,-25.38 -39.71,-27.78 3.42,-3.7 15.41,-10.67 19.76,-13.87 4.46,-3.28 56.99,-40.04 60.51,-41.3l0.02 22.9c-2.54,0.89 -13.6,8.92 -16.96,11.22 -5.27,3.6 -11,7.29 -16.54,11.53l62.97 -0.32 -0.2 18.66z"/>
  <g id="_1334661645984">
   <path class="fil0" d="M184.68 204.78l21.34 0.09c1.67,-6.12 -0.38,-24.35 0.47,-32.24l9.89 -0.06 26.47 32.23 24.42 0.07c-0.54,-2.62 -27.3,-31.06 -28.59,-33.99 10.66,-1.82 19.69,-6.6 23.9,-17.14 4.63,-11.59 0.78,-24.76 -5.72,-31.52 -6.42,-6.67 -18.02,-10.25 -30.96,-10.23 -7.62,0.01 -36.53,-0.42 -41.54,0.18 -0.95,13.51 -0.15,51.9 -0.02,69.44 0.04,4.86 -0.55,19.47 0.34,23.17z"/>
   <path class="fil0" d="M300.64 204.77l21.97 0.09c0.07,-9.96 -0.52,-21.43 0.08,-30.93 0.22,-3.48 3.26,-7.43 4.81,-10.43 5.12,-9.88 11.87,-21.4 16.4,-30.63 2.27,-4.63 9.96,-17.56 10.79,-21.05l-22.73 0.13c-2.8,3.89 -17.96,39.08 -20.23,41.09 -1.61,-1.19 -8.89,-16.78 -10.45,-20.03l-10.11 -21.04 -22.88 0.03c1.41,5.23 31.96,57.86 32.31,61.44 0.83,8.56 0.03,22.21 0.04,31.33z"/>
   <path class="fil2" d="M206.38 156.76c14.7,0.39 36.36,2.99 36.31,-13.96 -0.06,-17.28 -21.27,-13.41 -36.13,-13.89l-0.17 27.85z"/>
  </g>
  <g id="_1334661661008">
   <g>
    <path class="fil1" d="M324.77 6.76c-27.52,2.8 -47.65,24.66 -43.65,56.19 3.52,27.66 26.57,45.03 58.4,41.65 27.63,-2.94 47.22,-24.61 43.52,-55.96 -3.26,-27.66 -26.8,-45.08 -58.28,-41.88z"/>
    <path class="fil1" d="M130.26 70.74c-3.78,-0.1 -6.16,0.03 -9.76,0.31 -3.52,0.28 -6.86,-0.54 -10.29,0.02 2.57,41.45 56.84,37.79 72.03,24.06 7.94,-7.17 11.4,-17.12 8.38,-27.84 -6.53,-23.17 -38.12,-18.29 -51.9,-24.78 -10.87,-5.12 -8.1,-17.89 6.39,-19.56 6.19,-0.71 11.92,0.23 16.33,2.88 4.93,2.97 6.04,6.5 6.84,12.83l20.17 0.24c0.54,-5.74 -1.27,-11.46 -3.64,-15.67 -7.51,-13.38 -23.85,-18.27 -39.74,-17.54 -12.7,0.58 -20.36,3.4 -27.17,10.89 -12.08,13.28 -11.83,38.35 17.42,44.68 8.72,1.89 24.7,3.04 30.6,7.62 5.66,4.39 6.42,18.4 -13.72,18.54 -5.74,0.04 -11.81,-1.24 -15.51,-4.07 -4.41,-3.37 -4.78,-6.28 -6.45,-12.61z"/>
    <path class="fil1" d="M194.84 27.2l29.52 0.06 0.31 74.4c3.42,1.09 6.27,0.64 10.66,0.65 3.64,0.01 7.89,0.25 11.44,-0.1l-0.2 -74.68c7.03,-0.79 24.21,1.12 29.5,-0.41l-0.04 -18.04c-2.99,-0.74 -74.85,-1.04 -81.34,-0.58l0.16 18.71z"/>
   </g>
   <path class="fil2" d="M327.79 25.57c-36.66,4.32 -32.47,66.05 9.09,60.51 35.45,-4.73 32.39,-65.39 -9.09,-60.51z"/>
  </g>
 </g>
</svg>
